Coordinates
version=1
nRows=16
nColumns=22
inDegrees=yes

Units are S.I. units (second, meters, Newtons, ...)
If the header above contains a line with 'inDegrees', this indicates whether rotational values are in degrees (yes) or radians (no).

endheader
time	pelvis_tilt	pelvis_list	pelvis_rotation	pelvis_tx	pelvis_ty	pelvis_tz	hip_flexion_r	hip_adduction_r	hip_rotation_r	knee_angle_r	ankle_angle_r	subtalar_angle_r	hip_flexion_l	hip_adduction_l	hip_rotation_l	knee_angle_l	ankle_angle_l	subtalar_angle_l	lumbar_extension	lumbar_bending	lumbar_rotation
      2.05000000	     -0.68301921	     -3.74072815	     -5.75958344	      0.44480209	      0.88610520	      1.10681207	    -15.11410710	      0.85363361	      5.87761608	    -19.98258839	      9.80604396	      9.30600646	     27.34829825	    -10.85129053	    -41.10717519	    -24.89349270	      5.19086448	    -10.77345329	     -7.24571846	     -1.76262808	     14.51927275
      2.06000000	     -0.70098963	     -3.61593186	     -5.42086213	      0.45475476	      0.88651449	      1.10313707	    -14.96741252	      0.58648856	      5.90082824	    -21.18511906	      8.31105280	      9.97485412	     27.08419032	    -10.50488251	    -41.10773231	    -25.49434176	      5.04354292	    -12.05710726	     -6.99903393	     -1.97424915	     14.36983974
      2.07000000	     -0.71463514	     -3.50006378	     -5.00125862	      0.46473384	      0.88718808	      1.09926005	    -14.69517424	      0.36312581	      5.89345556	    -22.58149306	      6.58677761	     10.67306856	     26.81318440	    -10.09437660	    -40.94125216	    -26.03441370	      4.95520385	    -13.27199302	     -6.76105933	     -2.16948544	     14.16640945
      2.08000000	     -0.70994997	     -3.40695915	     -4.48524981	      0.47467704	      0.88814724	      1.09517041	    -14.30396833	      0.20200347	      5.85398882	    -24.17618476	      4.63672310	     11.38365365	     26.51720973	     -9.61544974	    -40.54947281	    -26.48523075	      4.87289071	    -14.33915643	     -6.55629097	     -2.33336848	     13.91236357
      2.09000000	     -0.68571861	     -3.34316423	     -3.89664843	      0.48455546	      0.88935489	      1.09087079	    -13.77882848	      0.09789598	      5.79532880	    -25.98479979	      2.48754091	     12.12708526	     26.18778288	     -9.10003860	    -40.01184290	    -26.86926455	      4.86732461	    -15.26989963	     -6.38437872	     -2.44784992	     13.62317583
      2.10000000	     -0.63348943	     -3.30921344	     -3.23481741	      0.49434039	      0.89079918	      1.08639363	    -13.12777821	      0.05106311	      5.71158270	    -27.99817041	      0.16617975	     12.83947855	     25.80693328	     -8.54988867	    -39.33261831	    -27.16838056	      4.90251914	    -15.99124778	     -6.25230288	     -2.51592801	     13.29390257
      2.11000000	     -0.57852994	     -3.31596712	     -2.54379813	      0.50399439	      0.89238099	      1.08180412	    -12.30592424	      0.06388330	      5.65205061	    -30.23603147	     -2.24856185	     13.62970563	     25.39477216	     -8.01372850	    -38.60521639	    -27.40688728	      5.07064570	    -16.62036878	     -6.12680913	     -2.52232359	     12.95822145
      2.12000000	     -0.46794507	     -3.33525511	     -1.77582312	      0.51346963	      0.89413889	      1.07703725	    -11.38343278	      0.10095756	      5.51174586	    -32.66182956	     -4.69807186	     14.23088382	     24.89599285	     -7.43004237	    -37.75843043	    -27.54462533	      5.17189438	    -16.98006076	     -6.07632342	     -2.50057319	     12.57595960
      2.13000000	     -0.38721233	     -3.39403264	     -1.02240433	      0.52274161	      0.89586651	      1.07222869	    -10.24805313	      0.18016785	      5.41430838	    -35.29850090	     -7.08737015	     14.90850069	     24.39267873	     -6.88942655	    -36.93790477	    -27.62356383	      5.43852306	    -17.28514624	     -5.99131947	     -2.41483424	     12.21855391
      2.14000000	     -0.27281967	     -3.44469155	     -0.25367904	      0.53179037	      0.89762291	      1.06734142	     -8.99216431	      0.24051394	      5.27604404	    -38.08971813	     -9.35187990	     15.39237864	     23.81595639	     -6.32780911	    -36.12981768	    -27.61917727	      5.66811157	    -17.42697887	     -5.95091755	     -2.32427663	     11.85543860
      2.15000000	     -0.12291665	     -3.47460632	      0.50702735	      0.54061919	      0.89936896	      1.06240851	     -7.63260820	      0.25629577	      5.10447310	    -40.99645977	    -11.41858464	     15.69151197	     23.15300770	     -5.74777051	    -35.39302851	    -27.52622879	      5.87074663	    -17.45960280	     -5.95580220	     -2.24209806	     11.49594013
      2.16000000	      0.00152892	     -3.48945077	      1.23944484	      0.54919157	      0.90095849	      1.05746317	     -6.11638417	      0.23872809	      4.96090575	    -43.98707782	    -13.22212504	     15.89337504	     22.48556724	     -5.16492417	    -34.71518765	    -27.37753730	      6.14250488	    -17.43350524	     -5.93813187	     -2.16092185	     11.16340851
      2.17000000	      0.13845150	     -3.47732654	      1.94069616	      0.55753853	      0.90244110	      1.05253118	     -4.51863382	      0.17700734	      4.85213585	    -46.98887854	    -14.71882604	     15.94567431	     21.76558703	     -4.57194785	    -34.12133653	    -27.16446517	      6.43176795	    -17.35341871	     -5.94091868	     -2.09924017	     10.84692594
      2.18000000	      0.26821429	     -3.43370544	      2.61913053	      0.56567220	      0.90377696	      1.04762094	     -2.84067561	      0.06526058	      4.76218635	    -49.95544704	    -15.88619591	     15.85798907	     21.01968999	     -3.95872837	    -33.58211521	    -26.88841552	      6.72533840	    -17.23006104	     -5.94126932	     -2.07167661	     10.54840270
      2.19000000	      0.40734735	     -3.35721491	      3.28281890	      0.57359644	      0.90500100	      1.04270023	     -1.13230941	     -0.08403557	      4.72642366	    -52.81984497	    -16.71476705	     15.64147842	     20.23763528	     -3.32441132	    -33.09656200	    -26.56603922	      7.01648326	    -17.07767570	     -5.96393850	     -2.06600650	     10.24999504
      2.20000000	      0.54783206	     -3.26592836	      3.93533267	      0.58134380	      0.90610481	      1.03780682	      0.59405461	     -0.24152695	      4.74784787	    -55.53813166	    -17.21411734	     15.25580801	     19.43761027	     -2.69291052	    -32.64329853	    -26.21735126	      7.34045194	    -16.90045070	     -5.99520088	     -2.07479192	      9.95167070
